<mxfile host="app.diagrams.net" modified="2024-06-10T04:15:57.243Z" agent="Mozilla/5.0 (Windows NT 10.0; Win64; x64) AppleWebKit/537.36 (KHTML, like Gecko) Chrome/125.0.0.0 Safari/537.36" etag="GDrf_TNx6sXXiJqwCqNf" version="24.5.2" type="github">
  <diagram name="Page-1" id="brhHfmaXAJEVNgR1HCfK">
    <mxGraphModel dx="880" dy="426" grid="1" gridSize="10" guides="1" tooltips="1" connect="1" arrows="1" fold="1" page="1" pageScale="1" pageWidth="827" pageHeight="1169" math="0" shadow="0">
      <root>
        <mxCell id="0" />
        <mxCell id="1" parent="0" />
        <mxCell id="SydNT_spqXo1jmoYEcu_-1" value="Start" style="rounded=1;whiteSpace=wrap;html=1;" vertex="1" parent="1">
          <mxGeometry x="120" y="300" width="110" height="30" as="geometry" />
        </mxCell>
        <mxCell id="SydNT_spqXo1jmoYEcu_-2" value="" style="endArrow=classic;html=1;rounded=0;exitX=0.409;exitY=0.967;exitDx=0;exitDy=0;exitPerimeter=0;" edge="1" parent="1">
          <mxGeometry width="50" height="50" relative="1" as="geometry">
            <mxPoint x="171.99" y="330.01" as="sourcePoint" />
            <mxPoint x="172" y="401" as="targetPoint" />
          </mxGeometry>
        </mxCell>
        <mxCell id="SydNT_spqXo1jmoYEcu_-3" value="Input User Paybill" style="rounded=0;whiteSpace=wrap;html=1;" vertex="1" parent="1">
          <mxGeometry x="110" y="400" width="120" height="50" as="geometry" />
        </mxCell>
        <mxCell id="SydNT_spqXo1jmoYEcu_-4" value="Is Paybill Valid Length" style="rhombus;whiteSpace=wrap;html=1;" vertex="1" parent="1">
          <mxGeometry x="352" y="375" width="100" height="100" as="geometry" />
        </mxCell>
        <mxCell id="SydNT_spqXo1jmoYEcu_-5" value="" style="endArrow=classic;html=1;rounded=0;" edge="1" parent="1">
          <mxGeometry width="50" height="50" relative="1" as="geometry">
            <mxPoint x="230" y="425" as="sourcePoint" />
            <mxPoint x="350" y="425" as="targetPoint" />
          </mxGeometry>
        </mxCell>
        <mxCell id="SydNT_spqXo1jmoYEcu_-6" value="End" style="rounded=1;whiteSpace=wrap;html=1;" vertex="1" parent="1">
          <mxGeometry x="602" y="866" width="110" height="30" as="geometry" />
        </mxCell>
        <mxCell id="SydNT_spqXo1jmoYEcu_-8" value="NO" style="text;html=1;align=center;verticalAlign=middle;resizable=0;points=[];autosize=1;strokeColor=none;fillColor=none;" vertex="1" parent="1">
          <mxGeometry x="350" y="693" width="40" height="30" as="geometry" />
        </mxCell>
        <mxCell id="SydNT_spqXo1jmoYEcu_-9" value="" style="endArrow=classic;html=1;rounded=0;entryX=0;entryY=0.5;entryDx=0;entryDy=0;" edge="1" parent="1" target="SydNT_spqXo1jmoYEcu_-12">
          <mxGeometry width="50" height="50" relative="1" as="geometry">
            <mxPoint x="453" y="426" as="sourcePoint" />
            <mxPoint x="530" y="426" as="targetPoint" />
          </mxGeometry>
        </mxCell>
        <mxCell id="SydNT_spqXo1jmoYEcu_-12" value="Select Associating Savings Account" style="rounded=0;whiteSpace=wrap;html=1;" vertex="1" parent="1">
          <mxGeometry x="583" y="400" width="120" height="50" as="geometry" />
        </mxCell>
        <mxCell id="SydNT_spqXo1jmoYEcu_-13" value="Send for Approval" style="rounded=0;whiteSpace=wrap;html=1;" vertex="1" parent="1">
          <mxGeometry x="582" y="490" width="120" height="50" as="geometry" />
        </mxCell>
        <mxCell id="SydNT_spqXo1jmoYEcu_-14" value="YES" style="text;html=1;align=center;verticalAlign=middle;resizable=0;points=[];autosize=1;strokeColor=none;fillColor=none;" vertex="1" parent="1">
          <mxGeometry x="466" y="400" width="50" height="30" as="geometry" />
        </mxCell>
        <mxCell id="SydNT_spqXo1jmoYEcu_-15" value="" style="endArrow=classic;html=1;rounded=0;" edge="1" parent="1">
          <mxGeometry width="50" height="50" relative="1" as="geometry">
            <mxPoint x="638" y="450" as="sourcePoint" />
            <mxPoint x="638" y="490" as="targetPoint" />
          </mxGeometry>
        </mxCell>
        <mxCell id="SydNT_spqXo1jmoYEcu_-16" value="Approved" style="rhombus;whiteSpace=wrap;html=1;" vertex="1" parent="1">
          <mxGeometry x="588" y="581" width="100" height="89" as="geometry" />
        </mxCell>
        <mxCell id="SydNT_spqXo1jmoYEcu_-17" value="" style="endArrow=classic;html=1;rounded=0;entryX=0.5;entryY=0;entryDx=0;entryDy=0;" edge="1" parent="1" target="SydNT_spqXo1jmoYEcu_-16">
          <mxGeometry width="50" height="50" relative="1" as="geometry">
            <mxPoint x="637" y="540" as="sourcePoint" />
            <mxPoint x="687" y="490" as="targetPoint" />
          </mxGeometry>
        </mxCell>
        <mxCell id="SydNT_spqXo1jmoYEcu_-18" value="" style="endArrow=none;html=1;rounded=0;entryX=0.5;entryY=1;entryDx=0;entryDy=0;" edge="1" parent="1" target="SydNT_spqXo1jmoYEcu_-4">
          <mxGeometry width="50" height="50" relative="1" as="geometry">
            <mxPoint x="400" y="880" as="sourcePoint" />
            <mxPoint x="400" y="480" as="targetPoint" />
          </mxGeometry>
        </mxCell>
        <mxCell id="SydNT_spqXo1jmoYEcu_-19" value="" style="endArrow=classic;html=1;rounded=0;" edge="1" parent="1">
          <mxGeometry width="50" height="50" relative="1" as="geometry">
            <mxPoint x="400" y="880" as="sourcePoint" />
            <mxPoint x="600" y="880" as="targetPoint" />
            <Array as="points" />
          </mxGeometry>
        </mxCell>
        <mxCell id="SydNT_spqXo1jmoYEcu_-21" value="" style="endArrow=classic;html=1;rounded=0;" edge="1" parent="1">
          <mxGeometry width="50" height="50" relative="1" as="geometry">
            <mxPoint x="638" y="670" as="sourcePoint" />
            <mxPoint x="638" y="860" as="targetPoint" />
          </mxGeometry>
        </mxCell>
        <mxCell id="SydNT_spqXo1jmoYEcu_-22" value="No" style="text;html=1;align=center;verticalAlign=middle;resizable=0;points=[];autosize=1;strokeColor=none;fillColor=none;" vertex="1" parent="1">
          <mxGeometry x="640" y="718" width="40" height="30" as="geometry" />
        </mxCell>
        <mxCell id="SydNT_spqXo1jmoYEcu_-23" value="Send for Approval" style="rounded=0;whiteSpace=wrap;html=1;" vertex="1" parent="1">
          <mxGeometry x="811" y="606" width="120" height="50" as="geometry" />
        </mxCell>
        <mxCell id="SydNT_spqXo1jmoYEcu_-24" value="" style="endArrow=classic;html=1;rounded=0;exitX=1;exitY=0.5;exitDx=0;exitDy=0;" edge="1" parent="1" source="SydNT_spqXo1jmoYEcu_-16">
          <mxGeometry width="50" height="50" relative="1" as="geometry">
            <mxPoint x="660" y="750" as="sourcePoint" />
            <mxPoint x="810" y="626" as="targetPoint" />
          </mxGeometry>
        </mxCell>
        <mxCell id="SydNT_spqXo1jmoYEcu_-25" value="" style="endArrow=none;html=1;rounded=0;" edge="1" parent="1">
          <mxGeometry width="50" height="50" relative="1" as="geometry">
            <mxPoint x="877" y="880" as="sourcePoint" />
            <mxPoint x="877" y="657" as="targetPoint" />
          </mxGeometry>
        </mxCell>
        <mxCell id="SydNT_spqXo1jmoYEcu_-26" value="" style="endArrow=classic;html=1;rounded=0;entryX=0.982;entryY=0.5;entryDx=0;entryDy=0;entryPerimeter=0;" edge="1" parent="1">
          <mxGeometry width="50" height="50" relative="1" as="geometry">
            <mxPoint x="878" y="880" as="sourcePoint" />
            <mxPoint x="712.02" y="881" as="targetPoint" />
          </mxGeometry>
        </mxCell>
        <mxCell id="SydNT_spqXo1jmoYEcu_-27" value="Yes" style="text;html=1;align=center;verticalAlign=middle;resizable=0;points=[];autosize=1;strokeColor=none;fillColor=none;" vertex="1" parent="1">
          <mxGeometry x="733" y="593" width="40" height="30" as="geometry" />
        </mxCell>
      </root>
    </mxGraphModel>
  </diagram>
</mxfile>
